HIERARCHY
ROOT Hips
{
	OFFSET 0.000000 0.000000 0.000000
	CHANNELS 6 Xposition Yposition Zposition Xrotation Yrotation Zrotation
	JOINT LeftUpLeg_virtual
	{
		OFFSET 0.000000 0.000000 0.000000
		CHANNELS 3 Xrotation Yrotation Zrotation
		JOINT LeftUpLeg
		{
			OFFSET 15.427100 -6.655098 0.678600
			CHANNELS 3 Xrotation Yrotation Zrotation
			JOINT LeftLeg
			{
				OFFSET 4.081073 -39.591068 13.024000
				CHANNELS 3 Xrotation Yrotation Zrotation
				JOINT LeftFoot
				{
					OFFSET -4.081074 -37.707932 -15.979700
					CHANNELS 3 Xrotation Yrotation Zrotation
					JOINT LeftToeBase
					{
						OFFSET 5.346399 -15.068900 20.645000
						CHANNELS 3 Xrotation Yrotation Zrotation
						JOINT LeftToe_End
						{
							OFFSET 2.754700 0.931300 11.300900
							CHANNELS 3 Xrotation Yrotation Zrotation
							End Site
							{
								OFFSET 0 0 0
							}
						}
					}
				}
			}
		}
	}
	JOINT RightUpLeg_virtual
	{
		OFFSET 0.000000 0.000000 0.000000
		CHANNELS 3 Xrotation Yrotation Zrotation
		JOINT RightUpLeg
		{
			OFFSET -15.569500 -6.655098 0.678600
			CHANNELS 3 Xrotation Yrotation Zrotation
			JOINT RightLeg
			{
				OFFSET -4.081825 -39.591045 13.023800
				CHANNELS 3 Xrotation Yrotation Zrotation
				JOINT RightFoot
				{
					OFFSET 4.081824 -37.707954 -15.979600
					CHANNELS 3 Xrotation Yrotation Zrotation
					JOINT RightToeBase
					{
						OFFSET -5.346400 -15.068900 20.645000
						CHANNELS 3 Xrotation Yrotation Zrotation
						JOINT RightToe_End
						{
							OFFSET -2.754700 0.931300 11.300900
							CHANNELS 3 Xrotation Yrotation Zrotation
							End Site
							{
								OFFSET 0 0 0
							}
						}
					}
				}
			}
		}
	}
	JOINT Spine_virtual
	{
		OFFSET 0.000000 0.000000 0.000000
		CHANNELS 3 Xrotation Yrotation Zrotation
		JOINT Spine
		{
			OFFSET -0.279200 12.230698 -2.892100
			CHANNELS 3 Xrotation Yrotation Zrotation
			JOINT Spine1
			{
				OFFSET -0.232667 10.192268 -1.242267
				CHANNELS 3 Xrotation Yrotation Zrotation
				JOINT Spine1_split
				{
					OFFSET -0.232667 10.192268 -1.242267
					CHANNELS 3 Xrotation Yrotation Zrotation
					JOINT Spine2
					{
						OFFSET -0.232667 10.192268 -1.242267
						CHANNELS 3 Xrotation Yrotation Zrotation
						JOINT Neck_virtual
						{
							OFFSET 0.000000 0.000000 0.000000
							CHANNELS 3 Xrotation Yrotation Zrotation
							JOINT Neck
							{
								OFFSET -0.418800 17.814194 8.416900
								CHANNELS 3 Xrotation Yrotation Zrotation
								JOINT Head
								{
									OFFSET 0.000000 7.031097 3.806800
									CHANNELS 3 Xrotation Yrotation Zrotation
									JOINT HeadTop_End
									{
										OFFSET 0.000000 24.646606 12.978600
										CHANNELS 3 Xrotation Yrotation Zrotation
										End Site
										{
											OFFSET 0 0 0
										}
									}
								}
							}
						}
						JOINT LeftShoulder_virtual
						{
							OFFSET 0.000000 0.000000 0.000000
							CHANNELS 3 Xrotation Yrotation Zrotation
							JOINT LeftShoulder
							{
								OFFSET 8.476499 7.247704 -3.868750
								CHANNELS 3 Xrotation Yrotation Zrotation
								JOINT LeftShoulder_split
								{
									OFFSET 8.476499 7.247704 -3.868750
									CHANNELS 3 Xrotation Yrotation Zrotation
									JOINT LeftArm
									{
										OFFSET 9.308998 -2.777710 0.208600
										CHANNELS 3 Xrotation Yrotation Zrotation
										JOINT LeftForeArm
										{
											OFFSET 29.972298 0.000000 0.000000
											CHANNELS 3 Xrotation Yrotation Zrotation
											JOINT LeftHand
											{
												OFFSET 26.026505 0.000000 0.000000
												CHANNELS 3 Xrotation Yrotation Zrotation
												End Site
												{
													OFFSET 0 0 0
												}
											}
										}
									}
								}
							}
						}
						JOINT RightShoulder_virtual
						{
							OFFSET 0.000000 0.000000 0.000000
							CHANNELS 3 Xrotation Yrotation Zrotation
							JOINT RightShoulder
							{
								OFFSET -7.570500 7.247704 -3.868750
								CHANNELS 3 Xrotation Yrotation Zrotation
								JOINT RightShoulder_split
								{
									OFFSET -7.570500 7.247704 -3.868750
									CHANNELS 3 Xrotation Yrotation Zrotation
									JOINT RightArm
									{
										OFFSET -9.308998 -2.777710 0.208500
										CHANNELS 3 Xrotation Yrotation Zrotation
										JOINT RightForeArm
										{
											OFFSET -29.972300 0.000000 0.000000
											CHANNELS 3 Xrotation Yrotation Zrotation
											JOINT RightHand
											{
												OFFSET -26.026505 0.000000 0.000000
												CHANNELS 3 Xrotation Yrotation Zrotation
												End Site
												{
													OFFSET 0 0 0
												}
											}
										}
									}
								}
							}
						}
					}
				}
			}
		}
	}
}
MOTION
Frames: 11
Frame Time: 0.03333333
-1.576245 12.767082 9.105202 0.000000 0.000000 0.000000 -86.956812 -3.816248 -1.537140 -22.258939 15.194137 -8.555317 20.492113 -4.999545 -8.703693 2.481722 8.572961 9.027399 -0.278268 0.000002 -0.000007 0.000000 0.000000 0.000000 -86.956812 -3.816248 -1.537140 -6.569404 -10.515983 1.194029 5.273275 -6.064213 7.442098 11.563815 -5.222849 24.998445 -2.225111 0.000006 -0.000003 0.000000 0.000000 0.000000 -86.956812 -3.816248 -1.537140 0.021975 2.311009 -0.899897 -2.888440 0.730091 -0.024166 0.000000 0.000000 0.000000 0.000000 0.000000 0.000000 -2.886190 0.757976 -0.000689 4.230894 0.516425 0.103490 4.792116 4.158769 10.393130 0.000000 0.000000 0.000000 -2.886190 0.757976 -0.000689 1.578118 -15.480666 -0.373038 0.000000 0.000000 0.000000 21.463376 -1.241643 -73.171038 -180.000005 -42.712281 179.999991 0.000000 0.000000 0.000000 -2.886190 0.757976 -0.000689 0.519566 6.620695 0.071980 0.000000 0.000000 0.000000 17.383916 6.639996 66.688854 -179.999937 47.041203 179.999937 0.000000 0.000000 0.000000 
-1.581623 12.770241 9.121017 0.000000 0.000000 0.000000 -86.965145 -3.825049 -1.542787 -22.276732 15.194871 -8.536331 20.540624 -4.999991 -8.711000 2.463550 8.535058 9.032166 -0.275869 -0.000006 0.000004 0.000000 0.000000 0.000000 -86.965145 -3.825049 -1.542787 -6.546423 -10.511566 1.204269 5.287693 -6.077747 7.433834 11.479141 -5.226714 25.033598 -2.183978 0.000020 0.000005 0.000000 0.000000 0.000000 -86.965145 -3.825049 -1.542787 0.019459 2.295662 -0.893106 -2.890430 0.725068 -0.031184 0.000000 0.000000 0.000000 0.000000 0.000000 0.000000 -2.888228 0.753031 -0.007883 4.248758 0.474674 0.124669 4.802335 3.733473 10.422748 0.000000 0.000000 0.000000 -2.888228 0.753031 -0.007883 1.577580 -15.471326 -0.370373 0.000000 0.000000 0.000000 21.413589 -1.119645 -73.165007 -179.999964 -42.539989 -179.999964 0.000000 0.000000 0.000000 -2.888228 0.753031 -0.007883 0.531619 6.659063 0.071797 0.000000 0.000000 0.000000 17.320895 6.578498 66.719993 -179.999978 47.039643 179.999991 0.000000 0.000000 0.000000 
-1.585232 12.774189 9.139954 0.000000 0.000000 0.000000 -86.976667 -3.828824 -1.550229 -22.293287 15.195364 -8.517612 20.595664 -4.999232 -8.718946 2.438324 8.492487 9.038372 -0.272480 -0.000007 -0.000002 0.000000 0.000000 0.000000 -86.976667 -3.828824 -1.550229 -6.517207 -10.509143 1.211198 5.304497 -6.101023 7.428556 11.388508 -5.225534 25.073676 -2.138507 -0.000011 0.000020 0.000000 0.000000 0.000000 -86.976667 -3.828824 -1.550229 0.025565 2.277036 -0.874159 -2.899775 0.719092 -0.031225 0.000000 0.000000 0.000000 0.000000 0.000000 0.000000 -2.897565 0.747076 -0.008095 4.272380 0.440566 0.143374 4.853065 3.381549 10.433350 0.000000 0.000000 0.000000 -2.897565 0.747076 -0.008095 1.572096 -15.451425 -0.406928 0.000000 0.000000 0.000000 21.322438 -0.990321 -73.108391 -179.999964 -42.351083 -179.999964 0.000000 0.000000 0.000000 -2.897565 0.747076 -0.008095 0.542298 6.731886 0.071287 0.000000 0.000000 0.000000 17.280959 6.510341 66.772810 179.999964 47.019668 -179.999964 0.000000 0.000000 0.000000 
-1.586597 12.778248 9.159569 0.000000 0.000000 0.000000 -86.988449 -3.826628 -1.558519 -22.308243 15.195890 -8.500953 20.650358 -4.996977 -8.727208 2.413423 8.445672 9.046753 -0.268054 0.000001 -0.000010 0.000000 0.000000 0.000000 -86.988449 -3.826628 -1.558519 -6.485229 -10.507970 1.215327 5.321010 -6.129326 7.424784 11.294111 -5.224950 25.119479 -2.088451 -0.000000 -0.000005 0.000000 0.000000 0.000000 -86.988449 -3.826628 -1.558519 0.041152 2.259776 -0.850269 -2.910626 0.713544 -0.026432 0.000000 0.000000 0.000000 0.000000 0.000000 0.000000 -2.908353 0.741506 -0.003458 4.294646 0.409458 0.165082 4.917914 3.065239 10.438747 0.000000 0.000000 0.000000 -2.908353 0.741506 -0.003458 1.565690 -15.422390 -0.445049 0.000000 0.000000 0.000000 21.221008 -0.901427 -73.058285 -179.999978 -42.246370 -179.999950 0.000000 0.000000 0.000000 -2.908353 0.741506 -0.003458 0.549124 6.804089 0.070730 0.000000 0.000000 0.000000 17.259738 6.469273 66.833107 -179.999991 46.986787 179.999991 0.000000 0.000000 0.000000 
-1.585903 12.781349 9.177559 0.000000 0.000000 0.000000 -86.997123 -3.819484 -1.566234 -22.322800 15.197060 -8.487762 20.698185 -4.993931 -8.735446 2.396791 8.395572 9.058697 -0.262673 0.000001 0.000009 0.000000 0.000000 0.000000 -86.997123 -3.819484 -1.566234 -6.454733 -10.507295 1.217215 5.334602 -6.159715 7.420464 11.198950 -5.227694 25.170401 -2.035021 0.000011 -0.000021 0.000000 0.000000 0.000000 -86.997123 -3.819484 -1.566234 0.055812 2.251486 -0.833991 -2.913367 0.710866 -0.020000 0.000000 0.000000 0.000000 0.000000 0.000000 0.000000 -2.911087 0.738785 0.002853 4.306731 0.376948 0.189636 4.956795 2.740814 10.444433 0.000000 0.000000 0.000000 -2.911087 0.738785 0.002853 1.560520 -15.391387 -0.469535 0.000000 0.000000 0.000000 21.128133 -0.878647 -73.032815 -179.999964 -42.295461 -179.999964 0.000000 0.000000 0.000000 -2.911087 0.738785 0.002853 0.548347 6.822702 0.070563 0.000000 0.000000 0.000000 17.242908 6.481581 66.861828 -179.999964 46.953814 179.999950 0.000000 0.000000 0.000000 
-1.583260 12.783180 9.192818 0.000000 0.000000 0.000000 -86.998811 -3.810515 -1.571998 -22.340273 15.199988 -8.478955 20.736302 -4.992210 -8.743427 2.394084 8.343422 9.076795 -0.256540 0.000000 -0.000006 0.000000 0.000000 0.000000 -86.998811 -3.810515 -1.571998 -6.430983 -10.506673 1.216851 5.344241 -6.190739 7.414675 11.105806 -5.231935 25.222594 -1.981706 -0.000008 0.000004 0.000000 0.000000 0.000000 -86.998811 -3.810515 -1.571998 0.057049 2.257730 -0.830779 -2.904508 0.712676 -0.014314 0.000000 0.000000 0.000000 0.000000 0.000000 0.000000 -2.902076 0.740548 0.008495 4.306760 0.341049 0.210715 4.947997 2.375005 10.463605 0.000000 0.000000 0.000000 -2.902076 0.740548 0.008495 1.555957 -15.366976 -0.493584 0.000000 0.000000 0.000000 21.057658 -0.924824 -73.005126 -179.999978 -42.486478 -179.999978 0.000000 0.000000 0.000000 -2.902076 0.740548 0.008495 0.538079 6.767179 0.070940 0.000000 0.000000 0.000000 17.221817 6.537276 66.832486 -179.999978 46.928935 179.999964 0.000000 0.000000 0.000000 
-1.579597 12.784386 9.206085 0.000000 0.000000 0.000000 -86.993019 -3.801958 -1.575177 -22.362745 15.205261 -8.474304 20.767839 -4.994616 -8.751154 2.404233 8.290678 9.102948 -0.249909 0.000004 -0.000004 0.000000 0.000000 0.000000 -86.993019 -3.801958 -1.575177 -6.415720 -10.505388 1.214121 5.352052 -6.222668 7.407518 11.014403 -5.235477 25.272236 -1.932586 -0.000007 0.000003 0.000000 0.000000 0.000000 -86.993019 -3.801958 -1.575177 0.041155 2.275704 -0.834867 -2.889164 0.717741 -0.011703 0.000000 0.000000 0.000000 0.000000 0.000000 0.000000 -2.886728 0.745553 0.011143 4.299737 0.303046 0.224811 4.906118 1.973104 10.518287 0.000000 0.000000 0.000000 -2.886728 0.745553 0.011143 1.551237 -15.346544 -0.522819 0.000000 0.000000 0.000000 21.014037 -1.012206 -72.959186 179.999991 -42.731316 -179.999991 0.000000 0.000000 0.000000 -2.886728 0.745553 0.011143 0.522536 6.667663 0.071621 0.000000 0.000000 0.000000 17.199847 6.601854 66.763064 179.999978 46.913001 -179.999978 0.000000 0.000000 0.000000 
-1.577011 12.786293 9.220222 0.000000 0.000000 0.000000 -86.983668 -3.794384 -1.576165 -22.390176 15.212513 -8.471730 20.801520 -5.003114 -8.758772 2.418643 8.238757 9.135293 -0.242912 0.000001 0.000006 0.000000 0.000000 0.000000 -86.983668 -3.794384 -1.576165 -6.405220 -10.503082 1.210357 5.361755 -6.255005 7.399818 10.921008 -5.239014 25.318434 -1.889717 0.000009 0.000008 0.000000 0.000000 0.000000 -86.983668 -3.794384 -1.576165 0.017222 2.291038 -0.834566 -2.877950 0.721608 -0.012196 0.000000 0.000000 0.000000 0.000000 0.000000 0.000000 -2.875483 0.749359 0.010689 4.293874 0.266926 0.235374 4.871766 1.581136 10.611980 0.000000 0.000000 0.000000 -2.875483 0.749359 0.010689 1.546765 -15.319896 -0.544357 0.000000 0.000000 0.000000 20.983627 -1.077415 -72.922767 -179.999991 -42.911504 -179.999978 0.000000 0.000000 0.000000 -2.875483 0.749359 0.010689 0.509772 6.590585 0.072117 0.000000 0.000000 0.000000 17.186163 6.641320 66.708060 179.999991 46.900918 179.999991 0.000000 0.000000 0.000000 
-1.576493 12.790016 9.237679 0.000000 0.000000 0.000000 -86.974830 -3.789467 -1.576679 -22.422191 15.220928 -8.468069 20.845191 -5.018624 -8.766372 2.428790 8.188774 9.167459 -0.235335 0.000009 -0.000005 0.000000 0.000000 0.000000 -86.974830 -3.789467 -1.576679 -6.394400 -10.499917 1.208084 5.375532 -6.285822 7.391420 10.821655 -5.245549 25.365805 -1.852266 0.000005 -0.000013 0.000000 0.000000 0.000000 -86.974830 -3.789467 -1.576679 -0.000030 2.288714 -0.822429 -2.878205 0.720214 -0.011917 0.000000 0.000000 0.000000 0.000000 0.000000 0.000000 -2.875726 0.747918 0.010902 4.296639 0.236744 0.246754 4.874458 1.247657 10.710916 0.000000 0.000000 0.000000 -2.875726 0.747918 0.010902 1.542555 -15.284358 -0.556156 0.000000 0.000000 0.000000 20.941616 -1.065036 -72.921128 -179.999991 -42.949384 -180.000005 0.000000 0.000000 0.000000 -2.875726 0.747918 0.010902 0.504486 6.590548 0.072060 0.000000 0.000000 0.000000 17.183627 6.639218 66.710902 -179.999964 46.885376 179.999991 0.000000 0.000000 0.000000 
-1.576972 12.794807 9.256508 0.000000 0.000000 0.000000 -86.968498 -3.789814 -1.577819 -22.453979 15.228959 -8.462629 20.892406 -5.039623 -8.773830 2.436075 8.142012 9.190981 -0.226607 0.000009 0.000003 0.000000 0.000000 0.000000 -86.968498 -3.789814 -1.577819 -6.379751 -10.495786 1.209640 5.390041 -6.311753 7.379994 10.716571 -5.256582 25.423525 -1.818668 0.000000 -0.000002 0.000000 0.000000 0.000000 -86.968498 -3.789814 -1.577819 -0.002652 2.271378 -0.802203 -2.887142 0.714711 -0.007791 0.000000 0.000000 0.000000 0.000000 0.000000 0.000000 -2.884628 0.742378 0.014871 4.308602 0.213305 0.258918 4.903692 0.986810 10.766454 0.000000 0.000000 0.000000 -2.884628 0.742378 0.014871 1.537128 -15.246782 -0.577978 0.000000 0.000000 0.000000 20.873625 -0.986577 -72.923676 -179.999978 -42.863706 -179.999978 0.000000 0.000000 0.000000 -2.884628 0.742378 0.014871 0.504820 6.656775 0.071531 0.000000 0.000000 0.000000 17.184753 6.606023 66.762524 -179.999964 46.862307 179.999950 0.000000 0.000000 0.000000 
-1.577301 12.799038 9.273842 0.000000 0.000000 0.000000 -86.965814 -3.795424 -1.579318 -22.480229 15.235181 -8.456323 20.934135 -5.061043 -8.780860 2.444717 8.099755 9.200308 -0.216663 -0.000006 -0.000001 0.000000 0.000000 0.000000 -86.965814 -3.795424 -1.579318 -6.359463 -10.490310 1.215455 5.400477 -6.330396 7.363336 10.610339 -5.271550 25.498978 -1.787488 -0.000002 -0.000007 0.000000 0.000000 0.000000 -86.965814 -3.795424 -1.579318 0.004234 2.259677 -0.783567 -2.895080 0.710876 -0.002458 0.000000 0.000000 0.000000 0.000000 0.000000 0.000000 -2.892532 0.738506 0.020089 4.322325 0.194337 0.269722 4.923868 0.786293 10.756669 0.000000 0.000000 0.000000 -2.892532 0.738506 0.020089 1.530020 -15.213451 -0.620583 0.000000 0.000000 0.000000 20.788543 -0.911297 -72.879396 179.999991 -42.746626 -179.999991 0.000000 0.000000 0.000000 -2.892532 0.738506 0.020089 0.505962 6.720584 0.071037 0.000000 0.000000 0.000000 17.179198 6.570304 66.815192 179.999991 46.833279 179.999991 0.000000 0.000000 0.000000 
